# xmcd
#
# Track frame offsets:
#	150
#	15930
#	33336
#	49636
#	65004
#	81008
#	100615
#	117810
#	132994
#	145870
#	165634
#	181113
#	198039
#	214301
#	231376
#	248558
#	263369
#	281102
#	297303
#
# Disc length: 4164 seconds
# Revision: 0
# Processed by: cddbd v1.5.2PL0 Copyright (c) Steve Scherf et al.
# Submitted via: dBpowerAMP V12.0
#
DISCID=02104213
DTITLE=Various Artist - Country Radio January 2010
DYEAR=2010
DGENRE=Country
TTITLE0=Emerson Drive - The Extra Mile
TTITLE1=Keith Urban - Til Summer Comes Around
TTITLE2=Jessica Harp - A Woman Needs
TTITLE3=Chris Young - The Man I Want To Be
TTITLE4=Sarah Buxton - Outside My Window
TTITLE5=Carrie Underwood - Temporary Home
TTITLE6=Tace Atkins - Ala Freakin Bama
TTITLE7=Alan Jackson - It's Just That Way
TTITLE8=Easton Corbin - A Little More Country
TTITLE9=George Canyon - In Your Arms Again
TTITLE10=Clay Walker - She Won't Be Lonely Long
TTITLE11=Montgomery Gentry - Oughta Be More Songs About That
TTITLE12=Victoria Banks - Kiss Me
TTITLE13=Wilsons The - Mine All Mine
TTITLE14=Zac Brown Band - Highway 20 Ride
TTITLE15=One More Girl - Tumblin Tears
TTITLE16=Bucky Covington - I want My Life Back
TTITLE17=Jann Arden - Free
TTITLE18=Uncle Kracker - Smile
EXTD=
EXTT0=
EXTT1=
EXTT2=
EXTT3=
EXTT4=
EXTT5=
EXTT6=
EXTT7=
EXTT8=
EXTT9=
EXTT10=
EXTT11=
EXTT12=
EXTT13=
EXTT14=
EXTT15=
EXTT16=
EXTT17=
EXTT18=
PLAYORDER=
